<svg fill="currentColor" xmlns="http://www.w3.org/2000/svg" viewBox="0 0 16 16" class="cl-navbarButtonIcon cl-navbarButtonIcon__security 🔒️ cl-internal-1e71drn"><path fill-rule="evenodd" clip-rule="evenodd" d="M13.748 2.91a.48.48 0 0 1 .124.083c.088.082.14.193.126.31v4.054a7.58 7.58 0 0 1-1.227 4.147c-.99 1.52-3.778 3.038-4.563 3.445a.45.45 0 0 1-.416 0c-.785-.407-3.576-1.925-4.565-3.445A7.61 7.61 0 0 1 2 7.357V3.303a.43.43 0 0 1 .14-.31.484.484 0 0 1 .334-.13h.027c2.162 0 4.132-.655 5.148-1.714A.485.485 0 0 1 8.004 1c.137 0 .266.054.355.149 1.016 1.056 2.99 1.714 5.148 1.714h.027c.076 0 .149.016.214.046Zm-2.695 3.097a.75.75 0 0 0-1.106-1.014c-.9.983-1.363 1.624-2.013 2.787-.218.39-.442.876-.626 1.305l-1.242-1.43a.75.75 0 0 0-1.132.982l2.042 2.354a.75.75 0 0 0 1.269-.227v-.003l.005-.011.018-.046a22.354 22.354 0 0 1 .305-.762c.199-.474.447-1.03.67-1.43.594-1.062.988-1.608 1.81-2.505Z"></path></svg>